<svg xmlns="http://www.w3.org/2000/svg" viewBox="0 0 170 30.46"><defs><style>.a{fill:#e95437;}.b{fill:#414140;}</style></defs><title>logo</title><path class="a" d="M138.94,24.22a6.83,6.83,0,0,1-7-6.65q0-.21,0-0.43a7,7,0,1,1,14,0,6.83,6.83,0,0,1-6.57,7.08h-0.43Zm0-3.21c1.81,0,3.28-1.75,3.28-3.9s-1.42-3.89-3.22-3.89-3.28,1.75-3.28,3.9S137.17,21,139,21h-0.06Z"/><rect class="b" x="0.94" y="10.16" width="3.7" height="13.91"/><path class="b" d="M40.76,12.22A9.22,9.22,0,0,1,47,9.85c4.18,0,5.88,2.27,5.88,7.28V20c0,1.82,1.47,1.57,1.47,1.57l0.11,2.33a3.34,3.34,0,0,1-1.75.46,3.18,3.18,0,0,1-3-1.71,5.33,5.33,0,0,1-4.26,1.63c-2.19,0-5.27-1-5.27-4.18,0-4,4.68-5,9.36-4.87V15.12c0-1.71-1.36-2.44-3-2.44a5.09,5.09,0,0,0-3.81,1.44ZM49.35,18H48.57c-2,0-4.83.31-4.83,1.94s1.64,1.73,2.56,1.73a2.84,2.84,0,0,0,3-2.49V18Z"/><path class="b" d="M76.12,12.22a9.22,9.22,0,0,1,6.21-2.36c4.18,0,5.88,2.27,5.88,7.28V20c0,1.82,1.47,1.57,1.47,1.57l0.11,2.33a3.34,3.34,0,0,1-1.75.46,3.18,3.18,0,0,1-3-1.71,5.33,5.33,0,0,1-4.26,1.63c-2.19,0-5.27-1-5.27-4.18,0-4,4.68-5,9.36-4.87V15.12c0-1.71-1.36-2.44-3-2.44a5.09,5.09,0,0,0-3.81,1.44ZM84.71,18H83.93c-2,0-4.83.31-4.83,1.94s1.64,1.73,2.56,1.73a2.84,2.84,0,0,0,3-2.49V18Z"/><path class="b" d="M62,13.14v6.53c0,1.27.42,1.94,1.72,1.94a3.93,3.93,0,0,0,1.33-.22l0.06,2.44a8.48,8.48,0,0,1-2.63.45c-3.68,0-4.34-2-4.34-4.9V13.14H56V10.29h2.19V5.83H62v4.46h3.24v2.85H62Z"/><path class="b" d="M68.56,24.07V0h3.76V24.07H68.56Z"/><path class="a" d="M111.43,24.35a2.75,2.75,0,0,1-2.82-2.68h0a2.8,2.8,0,0,1,2.82-2.74A2.71,2.71,0,0,1,111.43,24.35Z"/><path class="a" d="M128.23,14.22a4.44,4.44,0,0,0-3-1,4,4,0,0,0,.06,8c0.91,0,2.47-.21,3-0.88l2,2.51c-1.13,1.11-3.07,1.49-5.09,1.49-4.35,0-7.72-2.49-7.72-7.06s3.4-7.06,7.69-7.06c2,0,4,.47,5.12,1.58Z"/><path class="a" d="M166.3,24.07V16.55c0-1.58-.64-2.91-2.24-2.91a2.78,2.78,0,0,0-2.58,3v7.48h-3.7V16.22a2.48,2.48,0,0,0-2.39-2.57h-0.13c-1.44,0-2.27,1.3-2.27,3v7.47h-3.73V10.17h3.56v2h0.06a4.45,4.45,0,0,1,4.12-2,4.56,4.56,0,0,1,4.15,2.63,5.16,5.16,0,0,1,4.4-2.63c3.74,0,4.45,2.77,4.45,5.37v8.52h-3.7v0Z"/><path class="b" d="M101.55,24.07V16.55c0-1.52-.69-2.91-2.33-2.91s-2.53,1.38-2.53,3v7.47H93V10.17h3.63v2h0.06a4.85,4.85,0,0,1,4.12-2c3.71,0,4.52,2.64,4.52,5.41V24.1Z"/><path class="b" d="M16.49,24.1V16.53c0-1.52-.69-2.91-2.33-2.91s-2.53,1.38-2.53,3v7.47H7.93V10.15h3.63v2h0.06a4.85,4.85,0,0,1,4.12-2c3.71,0,4.52,2.64,4.52,5.41v8.52H16.49v0Z"/><path class="b" d="M38.5,7.29V9.95H37.25c-1.66,0-1.81.74-2.06,1.16a4,4,0,0,1,2.13,3.52c0,3.22-2.33,5.12-6.91,5.12a5.46,5.46,0,0,1-2.63-.46,1.12,1.12,0,0,0-.9,1c0,1,1.59.93,2.27,0.93h4.49a5.21,5.21,0,0,1,3.62,1.15c0.86,0.79,1.26,1.58,1.26,3.52,0,2.44-1.92,4.57-8.17,4.57-4.74,0-7.07-1.53-7.07-4a3.26,3.26,0,0,1,1.83-3,3.21,3.21,0,0,1-1.39-2.61A3.16,3.16,0,0,1,25.56,18,4.44,4.44,0,0,1,24,14.42a4.2,4.2,0,0,1,1.53-3.25,7.09,7.09,0,0,1,4.69-1.44,12.28,12.28,0,0,1,2.71.3A3.73,3.73,0,0,1,36.66,7.3H38.5ZM27,24.1a1.8,1.8,0,0,0-.83,1.21,2.05,2.05,0,0,0,.93,1.76c0.79,0.55,1.27.63,3,.64h1c3.51,0,3.74-1.41,3.74-2.1,0-.49-0.33-1.37-2.24-1.37H29A8.08,8.08,0,0,1,27,24.1Zm5.9-7.88a2.21,2.21,0,0,0,.66-1.73c0-.83-0.57-2.07-3-2.07a3,3,0,0,0-2,.64,2,2,0,0,0-.73,1.52,2.1,2.1,0,0,0,.66,1.64,3.17,3.17,0,0,0,2.2.7A3.13,3.13,0,0,0,32.85,16.22Z"/><path class="a" d="M2.82,7.81A2.75,2.75,0,0,1,0,5.13H0A2.8,2.8,0,0,1,2.82,2.38,2.72,2.72,0,0,1,2.82,7.81Z"/></svg>